<?xml version="1.0"?><svg version="1.2" baseProfile="tiny-ps" viewBox="0 0 300 300" xmlns="http://www.w3.org/2000/svg" xmlns:xlink="http://www.w3.org/1999/xlink"><title>AMG</title><g><g fill="#ffd300" transform="matrix(.1 0 0 -.1 0 300)"><path d="M1590 2682c-80-81-235-239-345-352s-287-295-395-405c-107-110-258-265-335-344l-140-144 30 18c17 10 122 81 235 159 113 77 333 227 490 334 157 108 356 244 443 304l159 109 16-13c9-7 204-173 432-368s424-362 435-370l20-15-11 15c-6 8-206 283-444 610s-435 598-439 602l-7 8-144-148zm-304-861c-219-170-403-315-410-322l-11-13 25 15c14 9 201 123 415 254 215 131 393 240 397 242s123-74 265-169c290-195 313-209 313-204 0 8-572 501-583 503-7 1-191-137-411-306zm984-491c-84-12-152-35-201-67l-39-26-19-31c-10-17-21-46-25-65l-6-34 11-41 11-41 44-42 44-42 72-23 73-23h155c85 0 181 4 213 8l58 9-3 91-3 92h-130l-3-67-3-67-63-6-63-7-67 10-67 11-46 22-45 22-19 31-19 31v80l19 31 19 31 48 24 49 23 87 4 87 4 103-12c57-7 105-12 108-11 3 0 5 13 5 29v27l-60 12c-33 6-105 14-160 17l-100 5-65-9zM490 1128c-84-106-155-201-158-210l-4-18h117l48 60 48 60h318l47-60 47-60h126l6 10 6 9-158 201-157 200H644l-154-192zm274 12 47-60H589l13 18c7 10 31 41 53 69l40 51 11-9c6-5 32-36 58-69zm363 173c-9-8-9-376-1-397l6-16h108l5 23c3 12 6 78 8 147l2 124 95-132 94-132h122l99 134 100 133 5-146 5-146h120l3 208 2 207-82-1h-83l-105-144c-58-80-108-145-111-145-4 0-53 65-110 145l-104 145h-86c-47 0-89-3-92-7zM143 720c-38-57-39-60-18-60h16l5 15 6 15h66l12-15c12-14 40-21 40-10 0 3-15 28-32 55l-33 50h-30l-32-50zm61-5 5-15h-19c-20 0-26 11-13 23 10 11 20 8 27-8zm86 0v-55h29l3 23 3 22 32 3 32 3 12 16 13 15-19 14-19 14h-86v-55zm78 23c-3-7-14-14-26-16l-22-3v31h52l-4-12zm62-23v-55l58 2 57 1-43 4-43 4 3 17 3 17 30 6 30 7-32 1-33 1v30h69l6 10 6 10H430v-55zm143 27 27-28-27-27-28-27h17c8 0 21 7 28 15s18 15 25 15 18-7 25-15l12-15h42l-27 28-27 28 27 27 28 27h-15c-7 0-23-9-35-20l-22-20-25 20c-15 11-32 20-39 20h-13l27-28zm227-27v-55h20v30c0 38 10 38 32 0l17-30h27l19 33 20 32 3-32 3-33h29v110h-38l-24-40-24-41-23 41-22 40h-39v-55zm210 0v-55l58 1 57 2-40 6-40 6v30l35 6 35 6-37 2-38 1v30h80v20h-110v-55zm137 48c-4-3-7-28-7-55v-48h39l3 27 3 26 31-26c18-15 40-27 49-27h18l-27 21-27 21 18 20 18 20-20 14-19 14h-36c-20 0-40-3-43-7zm71-25c-3-7-12-14-21-16l-17-3v31h42l-4-12zm82-23v-55h30v110h-30v-55zm70 0v-55h118l23 19 24 19-10 28-10 28-25 7c-14 4-46 7-72 8l-48 1v-55zm108 26 14-8-4-24-3-24-26-9-27-9-16 6-16 6v71h33c17 0 38-4 45-9zm82-26v-55h30v110h-30v-55zm86 0-36-55h38l6 15 5 15h70l9-16 9-16 17 3 16 4-35 53-36 52h-26l-37-55zm64-7c0-5-9-8-20-8h-21l12 21 11 22 9-14c5-8 9-17 9-21zm97 55c-4-3-7-28-7-55v-48h29l3 37 3 38 41-38 41-37h33v110h-30v-84l-43 42c-42 41-57 49-70 35zm280-5-27-10-7-26-6-25 23-19 22-18h108v50h-30v-40h-21c-11 0-29 5-40 10l-19 11v47l16 6c9 3 34 6 57 6h42l-15 10c-19 12-67 11-103-2zm153-43v-55h30v18c0 31 11 32 45 7 17-14 38-25 45-25h13l-21 23-21 22 15 20 15 20-18 12-17 13h-86v-55zm78 23c-3-7-14-14-26-16l-22-3v31h52l-4-12zm102 20-25-14-3-23-4-23 18-19 17-19h104l16 18c10 10 17 28 17 39v21l-15 12-15 12-43 5-42 4-25-13zm100-23 12-14-7-19-6-20-22-6c-12-3-31-3-44 0l-22 6-6 19-7 20 12 14 12 15h66l12-15zm70-9v-44l14-11 14-12 49 3 48 3 3 54 3 53-13-4-13-5-5-44-5-44-18-3-18-4-14 12-15 12v78h-30v-44zm177 37c-4-3-7-28-7-55v-48h40v50h24c13 0 31 3 40 6l16 6v36l-22 6c-31 8-83 8-91-1zm77-22 6-9-16-6c-25-10-34-7-34 9v15h19c11 0 22-4 25-9z"/></g></g></svg>