<svg width="300" height="300" viewBox="0 0 300 300" xmlns="http://www.w3.org/2000/svg">
  <rect width="300" height="300" rx="64" fill="#0a0907"/>
  <g transform="translate(0,56)">
    <g fill="#ffd300" transform="matrix(.1 0 0 -.1 0 300)">
      <path d="M1590 2682c-80-81-235-239-345-352s-287-295-395-405c-107-110-258-265-335-344l-140-144 30 18c17 10 122 81 235 159 113 77 333 227 490 334 157 108 356 244 443 304l159 109 16-13c9-7 204-173 432-368s424-362 435-370l20-15-11 15c-6 8-206 283-444 610s-435 598-439 602l-7 8-144-148zm-304-861c-219-170-403-315-410-322l-11-13 25 15c14 9 201 123 415 254 215 131 393 240 397 242s123-74 265-169c290-195 313-209 313-204 0 8-572 501-583 503-7 1-191-137-411-306z"/>
    </g>
  </g>
</svg>
